<?xml version="1.0" encoding="utf-8" ?>
<svg xmlns="http://www.w3.org/2000/svg" xmlns:xlink="http://www.w3.org/1999/xlink" width="1024" height="1024">
	<path d="M0 0L1024 0L1024 1024L0 1024L0 0Z"/>
	<path fill="#F0DB00" d="M280.185 628.073C319.024 627.328 358.021 627.978 396.873 627.964C390.886 634.73 384.036 640.99 377.671 647.424L338.294 687.064Q309.197 715.927 280.453 745.142L280.185 628.073Z"/>
	<path fill="#F0DB00" d="M590.319 276.693C626.49 276.304 662.692 276.78 698.867 276.804C714.611 276.814 730.439 277.092 746.169 276.572C735.71 288.756 723.503 299.818 712.092 311.139C699.253 323.877 686.676 337.152 673.471 349.483L510.59 349.635C519.959 341.095 589.437 279.535 590.319 276.693Z"/>
	<path fill="#F0DB00" d="M354.501 511.103C361.218 510.315 368.181 510.629 374.94 510.64L405.588 510.706Q458.919 511.022 512.249 510.539L463.88 559.234C455.381 567.841 446.25 576.294 438.503 585.566L334.653 585.524C316.456 585.524 298.204 585.825 280.012 585.464C287.122 579.816 293.45 572.451 299.86 565.982C317.953 547.721 335.412 528.308 354.501 511.103Z"/>
	<path fill="#F0DB00" d="M354.327 395.116L547.99 395.009C574.785 395.017 601.769 395.705 628.54 394.954C614.419 409.529 599.548 423.401 585.034 437.584C575.696 446.71 566.749 456.278 557.332 465.305C489.693 465.626 421.941 466.583 354.311 465.662L354.327 395.116Z"/>
	<path fill="#F0DB00" d="M280.012 585.464C279.59 577.111 279.928 568.64 279.954 560.27L280.009 516.446L280.029 381.996C280.105 350.727 284.363 327.422 307.725 304.377C321.338 290.949 338.904 282.298 357.587 278.511C370.108 275.973 382.917 276.581 395.617 276.609L439.523 276.708L590.319 276.693C589.437 279.535 519.959 341.095 510.59 349.635Q463.704 349.306 416.817 349.489L388.919 349.449C383.32 349.437 377.363 349.035 371.82 349.886Q371.038 350.013 370.267 350.198Q369.496 350.383 368.742 350.625Q367.987 350.868 367.253 351.167Q366.519 351.465 365.809 351.818Q365.099 352.171 364.418 352.576Q363.737 352.981 363.088 353.437Q362.44 353.892 361.827 354.395Q361.214 354.898 360.641 355.445C355.163 360.698 354.123 367.538 354.15 374.739C354.176 381.532 354.418 388.323 354.327 395.116L354.311 465.662C354.353 480.73 353.771 496.07 354.501 511.103C335.412 528.308 317.953 547.721 299.86 565.982C293.45 572.451 287.122 579.816 280.012 585.464Z"/>
	<path fill="#F0DB00" d="M743.339 373.391L743.761 373.818C744.962 380.335 744.026 396.628 744.023 403.968L744.024 475.383L744.122 624.846L744.179 669.954C744.217 679.519 744.522 689.157 744.109 698.713C743.493 712.945 737.449 725.707 726.876 735.263C716.067 745.032 702.61 749.582 688.094 748.752C680.587 748.322 670.796 745.988 664.51 741.745C659.26 738.201 654.422 732.179 649.962 727.656L620.958 698.164L565.057 641.249C552.909 628.944 540.313 616.856 528.757 603.996L528.679 747.091L497.96 747.053L446.974 747.172L446.988 670.717L574.219 543.801L626.774 597.216C640.716 611.546 654.543 626.193 669.051 639.947L669.015 447.248C677.395 437.45 687.771 428.584 697.002 419.54Q720.323 396.619 743.339 373.391Z"/>
</svg>
